<svg width="614" height="512" viewBox="0 0 614 512" version="1.1" xmlns="http://www.w3.org/2000/svg" xmlns:xlink="http://www.w3.org/1999/xlink" xmlns:figma="http://www.figma.com/figma/ns">
<title>brionz icon red</title>
<desc>Created using Figma</desc>
<g id="Canvas" transform="translate(116 -1087)" figma:type="canvas">
<g id="brionz icon red" figma:type="vector">
<use xlink:href="#path0_fill" transform="translate(-116 1087)" fill="#FF0000"/>
</g>
</g>
<defs>
<path id="path0_fill" fill-rule="evenodd" d="M 306.932 512C 476.447 512 613.865 397.385 613.865 256C 613.865 114.615 476.447 0 306.932 0C 137.418 0 0 114.615 0 256C 0 397.385 137.418 512 306.932 512ZM 278.874 324.782C 284.463 313.508 287.258 301.042 287.258 287.384C 287.258 274.051 284.463 261.802 278.874 250.637C 273.286 239.364 265.684 229.608 256.066 221.37C 246.449 213.131 235.141 206.736 222.145 202.183C 209.279 197.522 195.437 195.191 180.621 195.191C 175.812 195.191 170.874 195.625 165.806 196.492C 160.737 197.251 155.798 198.389 150.989 199.907C 146.311 201.424 141.891 203.375 137.732 205.76C 133.704 208.145 130.26 210.855 127.401 213.89L 127.401 132.591L 73.9851 132.591L 73.9851 287.384C 73.9851 300.826 76.7794 313.183 82.3678 324.457C 87.9563 335.622 95.5592 345.269 105.177 353.399C 114.924 361.529 126.231 367.87 139.098 372.423C 152.093 376.976 165.935 379.252 180.621 379.252C 195.437 379.252 209.279 377.03 222.145 372.585C 235.141 368.141 246.449 361.908 256.066 353.887C 265.684 345.757 273.286 336.055 278.874 324.782ZM 229.358 268.686C 232.217 274.431 233.646 280.664 233.646 287.384C 233.646 294.105 232.217 300.338 229.358 306.083C 226.629 311.828 222.859 316.814 218.051 321.042C 213.242 325.27 207.589 328.63 201.091 331.123C 194.722 333.508 187.899 334.7 180.621 334.7C 173.344 334.7 166.454 333.508 159.957 331.123C 153.588 328.63 148 325.27 143.191 321.042C 138.382 316.814 134.614 311.828 131.885 306.083C 129.155 300.338 127.791 294.105 127.791 287.384C 127.791 281.314 129.155 275.46 131.885 269.824C 134.614 264.079 138.382 259.038 143.191 254.702C 148 250.258 153.588 246.735 159.957 244.133C 166.454 241.423 173.344 240.068 180.621 240.068C 187.899 240.068 194.722 241.261 201.091 243.646C 207.589 246.03 213.242 249.336 218.051 253.564C 222.859 257.792 226.629 262.832 229.358 268.686ZM 378.493 282.832L 378.493 189.5L 434.442 189.5C 442.111 189.5 449.324 190.747 456.081 193.24C 462.84 195.625 468.753 198.931 473.822 203.159C 478.89 207.386 482.854 212.373 485.713 218.118C 488.702 223.754 490.197 229.771 490.197 236.166C 490.197 242.562 488.702 248.632 485.713 254.377C 482.854 260.014 478.89 264.946 473.822 269.173C 468.753 273.401 462.84 276.761 456.081 279.254C 449.324 281.639 442.111 282.832 434.442 282.832L 378.493 282.832ZM 322.543 376L 378.493 376L 378.493 329.334L 441.07 329.009L 465.439 376L 524.898 376L 493.901 315.026C 501.959 310.798 509.237 305.812 515.735 300.067C 522.233 294.322 527.692 288.035 532.11 281.206C 536.659 274.376 540.104 267.168 542.443 259.58C 544.913 251.992 546.148 244.188 546.148 236.166C 546.148 227.603 544.782 219.364 542.053 211.451C 539.454 203.538 535.685 196.113 530.746 189.175C 525.938 182.238 520.09 175.951 513.202 170.314C 506.443 164.569 498.905 159.691 490.587 155.68C 482.399 151.561 473.562 148.417 464.075 146.25C 454.587 143.973 444.71 142.835 434.442 142.835L 322.543 142.835L 322.543 376Z"/>
</defs>
</svg>
